# xmcd
#
# Track frame offsets: 
#        150
#        17187
#        34834
#        50109
#        65747
#        82315
#        96463
#        131434
#        158090
#        191747
#        207117
#        237615
#        264251
#        281519
#        298501
#        336752
#
# Disc length: 4748 seconds
#
# Revision: 0
# Processed by: cddbd v1.5.2PL0 Copyright (c) Steve Scherf et al.
# Submitted via: ExactAudioCopy v1.0b3
#
DISCID=f9128a10
DTITLE=Various Artist - Deejay Nation Vol. 3 - CD 1
DYEAR=1900
DGENRE=
TTITLE0=ATB - The Summer (Airplay Mix)
TTITLE1=Blank and Jones - The Nightfly (Short Cut)
TTITLE2=Fragma - Toca's Miracle (Radio Cut)
TTITLE3=Beam and Yanou - Sound Of Love (Video Mix)
TTITLE4=Web - Lovin' Times (Mythos 'n DJ Cosmo Edit)
TTITLE5=DJ Valium - Omen III (Radio Mix)
TTITLE6=Wag and Misar - The Secret (Club 2002 Mix)
TTITLE7=Crizz Lee - Teardrops In My Eyes (SMP's Hard Mix)
TTITLE8=Vitamino Feat. Da Force - What I've Got (Bossi Meets Cyrus and T
TTITLE8=he Joker Mix)
TTITLE9=DJ Shah - Riddim
TTITLE10=Webdrivers - Eternity Forever (Part One)
TTITLE11=The Beatshop - Read My Lips (DJ Screw Rmx)
TTITLE12=Laut-Sprecher - Richtig Laut (Radio Version)
TTITLE13=DJ Taylor and Flow - Exzess (Strike 2 - Short Mix)
TTITLE14=Enigma - Push The Limits (ATB Rmx)
TTITLE15=Delerium - Silence (Sanctuary Mix Edit)
EXTD=
EXTT0=
EXTT1=
EXTT2=
EXTT3=
EXTT4=
EXTT5=
EXTT6=
EXTT7=
EXTT8=
EXTT9=
EXTT10=
EXTT11=
EXTT12=
EXTT13=
EXTT14=
EXTT15=
PLAYORDER=
